<svg width="1820" height="248.41512937597724" viewBox="-40 -148.41512937597724 1820 248.41512937597724" xmlns="http://www.w3.org/2000/svg">
<style>
  text { font-family: "Segoe UI", Roboto, Helvetica, Arial, sans-serif; }
</style>
<defs>
  <marker id="arrow" viewBox="0 0 10 10" refX="6" refY="5" markerWidth="6" markerHeight="6" orient="auto-start-reverse">
    <path d="M 0 1.5 L 7 5 L 0 8.5 z" fill="#1e1e1e" />
  </marker>
</defs>
  <rect x="-40" y="-148.41512937597724" width="1820" height="248.41512937597724" fill="#ffffff" />
  <text x="630.7273161978859" y="-84.41512937597724" fill="#1e1e1e" font-size="24" font-family='"Segoe UI", sans-serif' text-anchor="start">
    <tspan x="630.7273161978859">Cadena de valor de una Comisaría</tspan>
  </text>
  <rect x="0" y="0" width="180" height="60" fill="#a5d8ff" stroke="#1e1e1e" stroke-width="2" rx="8" />
  <text x="90.0" y="30.0" fill="#1e1e1e" font-size="16" font-family='"Segoe UI", sans-serif' text-anchor="middle">
    <tspan x="90.0">Caso entra</tspan>
  </text>
  <rect x="260" y="0" width="180" height="60" fill="#a5d8ff" stroke="#1e1e1e" stroke-width="2" rx="8" />
  <text x="350.0" y="30.0" fill="#1e1e1e" font-size="16" font-family='"Segoe UI", sans-serif' text-anchor="middle">
    <tspan x="350.0">Radicación</tspan>
  </text>
  <rect x="520" y="0" width="180" height="60" fill="#a5d8ff" stroke="#1e1e1e" stroke-width="2" rx="8" />
  <text x="610.0" y="30.0" fill="#1e1e1e" font-size="16" font-family='"Segoe UI", sans-serif' text-anchor="middle">
    <tspan x="610.0">Verificación</tspan>
  </text>
  <rect x="780" y="0" width="180" height="60" fill="#a5d8ff" stroke="#1e1e1e" stroke-width="2" rx="8" />
  <text x="870.0" y="30.0" fill="#1e1e1e" font-size="16" font-family='"Segoe UI", sans-serif' text-anchor="middle">
    <tspan x="870.0">Audiencia</tspan>
  </text>
  <rect x="1040" y="0" width="180" height="60" fill="#a5d8ff" stroke="#1e1e1e" stroke-width="2" rx="8" />
  <text x="1130.0" y="30.0" fill="#1e1e1e" font-size="16" font-family='"Segoe UI", sans-serif' text-anchor="middle">
    <tspan x="1130.0">Acta</tspan>
  </text>
  <rect x="1300" y="0" width="180" height="60" fill="#a5d8ff" stroke="#1e1e1e" stroke-width="2" rx="8" />
  <text x="1390.0" y="30.0" fill="#1e1e1e" font-size="16" font-family='"Segoe UI", sans-serif' text-anchor="middle">
    <tspan x="1390.0">Medida</tspan>
  </text>
  <rect x="1560" y="0" width="180" height="60" fill="#a5d8ff" stroke="#1e1e1e" stroke-width="2" rx="8" />
  <text x="1650.0" y="30.0" fill="#1e1e1e" font-size="16" font-family='"Segoe UI", sans-serif' text-anchor="middle">
    <tspan x="1650.0">Seguimiento</tspan>
  </text>
  <path d="M 180 30 L 260 30" fill="none" stroke="#1e1e1e" stroke-width="2" marker-end="url(#arrow)" />
  <path d="M 440 30 L 520 30" fill="none" stroke="#1e1e1e" stroke-width="2" marker-end="url(#arrow)" />
  <path d="M 700 30 L 780 30" fill="none" stroke="#1e1e1e" stroke-width="2" marker-end="url(#arrow)" />
  <path d="M 960 30 L 1040 30" fill="none" stroke="#1e1e1e" stroke-width="2" marker-end="url(#arrow)" />
  <path d="M 1220 30 L 1300 30" fill="none" stroke="#1e1e1e" stroke-width="2" marker-end="url(#arrow)" />
  <path d="M 1480 30 L 1560 30" fill="none" stroke="#1e1e1e" stroke-width="2" marker-end="url(#arrow)" />
</svg>