<svg width="800" height="550" viewBox="-40 -100 800 550" xmlns="http://www.w3.org/2000/svg">
<style>
  text { font-family: "Segoe UI", Roboto, Helvetica, Arial, sans-serif; }
</style>
<defs>
  <marker id="arrow" viewBox="0 0 10 10" refX="6" refY="5" markerWidth="6" markerHeight="6" orient="auto-start-reverse">
    <path d="M 0 1.5 L 7 5 L 0 8.5 z" fill="#1e1e1e" />
  </marker>
</defs>
  <rect x="-40" y="-100" width="800" height="550" fill="#ffffff" />
  <text x="0" y="-36" fill="#1e1e1e" font-size="24" font-family='"Segoe UI", sans-serif' text-anchor="start">
    <tspan x="0">IA Generativa: cómo funciona</tspan>
  </text>
  <rect x="0" y="0" width="200" height="50" fill="#d0bfff" stroke="#1e1e1e" stroke-width="2" rx="8" />
  <text x="100.0" y="25.0" fill="#1e1e1e" font-size="16" font-family='"Segoe UI", sans-serif' text-anchor="middle">
    <tspan x="100.0">Instrucción / Prompt</tspan>
  </text>
  <rect x="260" y="0" width="200" height="50" fill="#d0bfff" stroke="#1e1e1e" stroke-width="2" rx="8" />
  <text x="360.0" y="25.0" fill="#1e1e1e" font-size="16" font-family='"Segoe UI", sans-serif' text-anchor="middle">
    <tspan x="360.0">Contexto permitido</tspan>
  </text>
  <rect x="520" y="0" width="200" height="50" fill="#d0bfff" stroke="#1e1e1e" stroke-width="2" rx="8" />
  <text x="620.0" y="25.0" fill="#1e1e1e" font-size="16" font-family='"Segoe UI", sans-serif' text-anchor="middle">
    <tspan x="620.0">Reglas institucionales</tspan>
  </text>
  <rect x="260" y="120" width="200" height="50" fill="#a5d8ff" stroke="#1e1e1e" stroke-width="2" rx="8" />
  <text x="360.0" y="145.0" fill="#1e1e1e" font-size="16" font-family='"Segoe UI", sans-serif' text-anchor="middle">
    <tspan x="360.0">Modelo de IA</tspan>
  </text>
  <rect x="260" y="240" width="200" height="50" fill="#b2f2bb" stroke="#1e1e1e" stroke-width="2" rx="8" />
  <text x="360.0" y="265.0" fill="#1e1e1e" font-size="16" font-family='"Segoe UI", sans-serif' text-anchor="middle">
    <tspan x="360.0">Borrador sugerido</tspan>
  </text>
  <rect x="200" y="360" width="320" height="50" fill="#b2f2bb" stroke="#1e1e1e" stroke-width="2" rx="8" />
  <text x="360.0" y="385.0" fill="#1e1e1e" font-size="16" font-family='"Segoe UI", sans-serif' text-anchor="middle">
    <tspan x="360.0">✅ Revisión humana obligatoria</tspan>
  </text>
  <path d="M 100 50 L 360 120" fill="none" stroke="#1e1e1e" stroke-width="2" marker-end="url(#arrow)" />
  <path d="M 360 50 L 360 120" fill="none" stroke="#1e1e1e" stroke-width="2" marker-end="url(#arrow)" />
  <path d="M 620 50 L 360 120" fill="none" stroke="#1e1e1e" stroke-width="2" marker-end="url(#arrow)" />
  <path d="M 360 170 L 360 240" fill="none" stroke="#1e1e1e" stroke-width="2" marker-end="url(#arrow)" />
  <path d="M 360 290 L 360 360" fill="none" stroke="#1e1e1e" stroke-width="2" marker-end="url(#arrow)" />
</svg>