<svg width="713.6" height="500" viewBox="-40 -100 713.6 500" xmlns="http://www.w3.org/2000/svg">
<style>
  text { font-family: "Segoe UI", Roboto, Helvetica, Arial, sans-serif; }
</style>
<defs>
  <marker id="arrow" viewBox="0 0 10 10" refX="6" refY="5" markerWidth="6" markerHeight="6" orient="auto-start-reverse">
    <path d="M 0 1.5 L 7 5 L 0 8.5 z" fill="#1e1e1e" />
  </marker>
</defs>
  <rect x="-40" y="-100" width="713.6" height="500" fill="#ffffff" />
  <text x="0" y="-36" fill="#1e1e1e" font-size="24" font-family='"Segoe UI", sans-serif' text-anchor="start">
    <tspan x="0">Mito vs Realidad: acceso a sistemas internos</tspan>
  </text>
  <text x="60" y="20" fill="#e03131" font-size="20" font-family='"Segoe UI", sans-serif' text-anchor="start">
    <tspan x="60">❌ MITO</tspan>
  </text>
  <rect x="20" y="40" width="200" height="50" fill="#ffc9c9" stroke="#1e1e1e" stroke-width="2" rx="8" />
  <text x="120.0" y="65.0" fill="#1e1e1e" font-size="16" font-family='"Segoe UI", sans-serif' text-anchor="middle">
    <tspan x="120.0">IA pública</tspan>
  </text>
  <rect x="20" y="160" width="200" height="50" fill="#ffc9c9" stroke="#1e1e1e" stroke-width="2" rx="8" />
  <text x="120.0" y="185.0" fill="#1e1e1e" font-size="16" font-family='"Segoe UI", sans-serif' text-anchor="middle">
    <tspan x="120.0">Sistemas internos</tspan>
  </text>
  <path d="M 120 90 L 120 160" fill="none" stroke="#e03131" stroke-width="2" stroke-dasharray="5,5" marker-end="url(#arrow)" />
  <text x="44.6796875" y="129.8046875" fill="#e03131" font-size="14" font-family='"Segoe UI", sans-serif' text-anchor="start">
    <tspan x="44.6796875">❌ Acceso libre</tspan>
  </text>
  <text x="380" y="20" fill="#2f9e44" font-size="20" font-family='"Segoe UI", sans-serif' text-anchor="start">
    <tspan x="380">✅ REALIDAD</tspan>
  </text>
  <rect x="340" y="40" width="200" height="50" fill="#b2f2bb" stroke="#1e1e1e" stroke-width="2" rx="8" />
  <text x="440.0" y="65.0" fill="#1e1e1e" font-size="16" font-family='"Segoe UI", sans-serif' text-anchor="middle">
    <tspan x="440.0">IA institucional</tspan>
  </text>
  <rect x="340" y="130" width="200" height="50" fill="#fff3bf" stroke="#1e1e1e" stroke-width="2" rx="8" />
  <text x="440.0" y="155.0" fill="#1e1e1e" font-size="16" font-family='"Segoe UI", sans-serif' text-anchor="middle">
    <tspan x="440.0">Capa de permisos</tspan>
  </text>
  <rect x="340" y="220" width="200" height="50" fill="#b2f2bb" stroke="#1e1e1e" stroke-width="2" rx="8" />
  <text x="440.0" y="245.0" fill="#1e1e1e" font-size="16" font-family='"Segoe UI", sans-serif' text-anchor="middle">
    <tspan x="440.0">Conector autorizado</tspan>
  </text>
  <rect x="340" y="310" width="200" height="50" fill="#b2f2bb" stroke="#1e1e1e" stroke-width="2" rx="8" />
  <text x="440.0" y="335.0" fill="#1e1e1e" font-size="16" font-family='"Segoe UI", sans-serif' text-anchor="middle">
    <tspan x="440.0">Sistemas internos</tspan>
  </text>
  <path d="M 440 90 L 440 130" fill="none" stroke="#1e1e1e" stroke-width="2" marker-end="url(#arrow)" />
  <path d="M 440 180 L 440 220" fill="none" stroke="#1e1e1e" stroke-width="2" marker-end="url(#arrow)" />
  <path d="M 440 270 L 440 310" fill="none" stroke="#1e1e1e" stroke-width="2" marker-end="url(#arrow)" />
</svg>