<svg width="900.1171875" height="296.7506749751119" viewBox="-40.1171875 -126.7506749751119 900.1171875 296.7506749751119" xmlns="http://www.w3.org/2000/svg">
<style>
  text { font-family: "Segoe UI", Roboto, Helvetica, Arial, sans-serif; }
</style>
<defs>
  <marker id="arrow" viewBox="0 0 10 10" refX="6" refY="5" markerWidth="6" markerHeight="6" orient="auto-start-reverse">
    <path d="M 0 1.5 L 7 5 L 0 8.5 z" fill="#1e1e1e" />
  </marker>
</defs>
  <rect x="-40.1171875" y="-126.7506749751119" width="900.1171875" height="296.7506749751119" fill="#ffffff" />
  <text x="170.92657647288524" y="-62.750674975111906" fill="#1e1e1e" font-size="24" font-family='"Segoe UI", sans-serif' text-anchor="start">
    <tspan x="170.92657647288524">Del usuario al constructor (No-Code)</tspan>
  </text>
  <rect x="-0.1171875" y="0.0078125" width="220" height="60" fill="#e9ecef" stroke="#1e1e1e" stroke-width="2" rx="8" />
  <text x="109.8828125" y="20.0078125" fill="#1e1e1e" font-size="16" font-family='"Segoe UI", sans-serif' text-anchor="middle">
    <tspan x="109.8828125">ANTES</tspan>
    <tspan x="109.8828125" dy="20.0">Usuario pasivo</tspan>
  </text>
  <rect x="300" y="0" width="220" height="60" fill="#a5d8ff" stroke="#1e1e1e" stroke-width="2" rx="8" />
  <text x="410.0" y="20.0" fill="#1e1e1e" font-size="16" font-family='"Segoe UI", sans-serif' text-anchor="middle">
    <tspan x="410.0">AHORA</tspan>
    <tspan x="410.0" dy="20.0">Conversar con IA</tspan>
  </text>
  <rect x="600" y="0" width="220" height="60" fill="#b2f2bb" stroke="#1e1e1e" stroke-width="2" rx="8" />
  <text x="710.0" y="20.0" fill="#1e1e1e" font-size="16" font-family='"Segoe UI", sans-serif' text-anchor="middle">
    <tspan x="710.0">PRONTO</tspan>
    <tspan x="710.0" dy="20.0">Constructor no-code</tspan>
  </text>
  <path d="M 220 30 L 300 30" fill="none" stroke="#1e1e1e" stroke-width="2" marker-end="url(#arrow)" />
  <path d="M 520 30 L 600 30" fill="none" stroke="#1e1e1e" stroke-width="2" marker-end="url(#arrow)" />
  <rect x="0" y="90" width="220" height="40" fill="#e9ecef" stroke="#1e1e1e" stroke-width="2" rx="8" />
  <text x="110.0" y="110.0" fill="#1e1e1e" font-size="16" font-family='"Segoe UI", sans-serif' text-anchor="middle">
    <tspan x="110.0">Sistemas rígidos</tspan>
  </text>
  <rect x="300" y="90" width="220" height="40" fill="#d0bfff" stroke="#1e1e1e" stroke-width="2" rx="8" />
  <text x="410.0" y="110.0" fill="#1e1e1e" font-size="16" font-family='"Segoe UI", sans-serif' text-anchor="middle">
    <tspan x="410.0">Borradores rápidos</tspan>
  </text>
  <rect x="600" y="90" width="220" height="40" fill="#b2f2bb" stroke="#1e1e1e" stroke-width="2" rx="8" />
  <text x="710.0" y="110.0" fill="#1e1e1e" font-size="16" font-family='"Segoe UI", sans-serif' text-anchor="middle">
    <tspan x="710.0">Gems y flujos propios</tspan>
  </text>
</svg>