<svg width="555.2" height="671.0859375" viewBox="-89.453125 -101.0859375 555.2 671.0859375" xmlns="http://www.w3.org/2000/svg">
<style>
  text { font-family: "Segoe UI", Roboto, Helvetica, Arial, sans-serif; }
</style>
<defs>
  <marker id="arrow" viewBox="0 0 10 10" refX="6" refY="5" markerWidth="6" markerHeight="6" orient="auto-start-reverse">
    <path d="M 0 1.5 L 7 5 L 0 8.5 z" fill="#1e1e1e" />
  </marker>
</defs>
  <rect x="-89.453125" y="-101.0859375" width="555.2" height="671.0859375" fill="#ffffff" />
  <text x="-49.453125" y="-37.0859375" fill="#1e1e1e" font-size="24" font-family='"Segoe UI", sans-serif' text-anchor="start">
    <tspan x="-49.453125">Arquitectura Institucional Segura</tspan>
  </text>
  <rect x="0" y="0" width="260" height="50" fill="#a5d8ff" stroke="#1e1e1e" stroke-width="2" rx="8" />
  <text x="130.0" y="25.0" fill="#1e1e1e" font-size="16" font-family='"Segoe UI", sans-serif' text-anchor="middle">
    <tspan x="130.0">Funcionario</tspan>
  </text>
  <rect x="0" y="80" width="260" height="50" fill="#a5d8ff" stroke="#1e1e1e" stroke-width="2" rx="8" />
  <text x="130.0" y="105.0" fill="#1e1e1e" font-size="16" font-family='"Segoe UI", sans-serif' text-anchor="middle">
    <tspan x="130.0">Portal interno de IA</tspan>
  </text>
  <rect x="0" y="160" width="260" height="50" fill="#a5d8ff" stroke="#1e1e1e" stroke-width="2" rx="8" />
  <text x="130.0" y="185.0" fill="#1e1e1e" font-size="16" font-family='"Segoe UI", sans-serif' text-anchor="middle">
    <tspan x="130.0">Capa de permisos y roles</tspan>
  </text>
  <rect x="0" y="240" width="260" height="50" fill="#a5d8ff" stroke="#1e1e1e" stroke-width="2" rx="8" />
  <text x="130.0" y="265.0" fill="#1e1e1e" font-size="16" font-family='"Segoe UI", sans-serif' text-anchor="middle">
    <tspan x="130.0">Agentes especializados</tspan>
  </text>
  <rect x="0" y="320" width="260" height="50" fill="#a5d8ff" stroke="#1e1e1e" stroke-width="2" rx="8" />
  <text x="130.0" y="345.0" fill="#1e1e1e" font-size="16" font-family='"Segoe UI", sans-serif' text-anchor="middle">
    <tspan x="130.0">Conectores seguros</tspan>
  </text>
  <rect x="0" y="400" width="260" height="50" fill="#a5d8ff" stroke="#1e1e1e" stroke-width="2" rx="8" />
  <text x="130.0" y="425.0" fill="#1e1e1e" font-size="16" font-family='"Segoe UI", sans-serif' text-anchor="middle">
    <tspan x="130.0">Expedientes / Formatos</tspan>
  </text>
  <rect x="0" y="480" width="260" height="50" fill="#a5d8ff" stroke="#1e1e1e" stroke-width="2" rx="8" />
  <text x="130.0" y="505.0" fill="#1e1e1e" font-size="16" font-family='"Segoe UI", sans-serif' text-anchor="middle">
    <tspan x="130.0">Registro de auditoría</tspan>
  </text>
  <path d="M 130 50 L 130 80" fill="none" stroke="#1e1e1e" stroke-width="2" marker-end="url(#arrow)" />
  <path d="M 130 130 L 130 160" fill="none" stroke="#1e1e1e" stroke-width="2" marker-end="url(#arrow)" />
  <path d="M 130 210 L 130 240" fill="none" stroke="#1e1e1e" stroke-width="2" marker-end="url(#arrow)" />
  <path d="M 130 290 L 130 320" fill="none" stroke="#1e1e1e" stroke-width="2" marker-end="url(#arrow)" />
  <path d="M 130 370 L 130 400" fill="none" stroke="#1e1e1e" stroke-width="2" marker-end="url(#arrow)" />
  <path d="M 130 450 L 130 480" fill="none" stroke="#1e1e1e" stroke-width="2" marker-end="url(#arrow)" />
</svg>